<svg xmlns="http://www.w3.org/2000/svg" width="900" height="430" viewBox="0 0 900 430">
<rect width="100%" height="100%" fill="white"/>
<text x="450.0" y="22" text-anchor="middle" font-size="17" font-family="sans-serif">ROC and precision-recall — adfa-ld / pca-autoencoder</text>
<g font-family="sans-serif" fill="#111827">
<rect x="55" y="55" width="340" height="290" fill="#f9fafb" stroke="#374151"/>
<line x1="55" y1="345.00" x2="395" y2="345.00" stroke="#e5e7eb"/>
<text x="47" y="349.00" text-anchor="end" font-size="10">0.0</text>
<line x1="55" y1="287.00" x2="395" y2="287.00" stroke="#e5e7eb"/>
<text x="47" y="291.00" text-anchor="end" font-size="10">0.2</text>
<line x1="55" y1="229.00" x2="395" y2="229.00" stroke="#e5e7eb"/>
<text x="47" y="233.00" text-anchor="end" font-size="10">0.4</text>
<line x1="55" y1="171.00" x2="395" y2="171.00" stroke="#e5e7eb"/>
<text x="47" y="175.00" text-anchor="end" font-size="10">0.6</text>
<line x1="55" y1="113.00" x2="395" y2="113.00" stroke="#e5e7eb"/>
<text x="47" y="117.00" text-anchor="end" font-size="10">0.8</text>
<line x1="55" y1="55.00" x2="395" y2="55.00" stroke="#e5e7eb"/>
<text x="47" y="59.00" text-anchor="end" font-size="10">1.0</text>
<polyline points="55.00,345.00 61.80,345.00 65.20,345.00 68.60,345.00 72.00,345.00 72.00,341.13 72.00,339.20 72.00,337.27 72.00,335.33 72.00,333.40 72.00,329.53 72.00,327.60 72.00,325.67 75.40,325.67 85.60,325.67 85.60,323.73 85.60,321.80 89.00,321.80 89.00,319.87 89.00,316.00 92.40,316.00 92.40,314.07 95.80,314.07 102.60,314.07 102.60,312.13 102.60,310.20 102.60,308.27 102.60,306.33 112.80,306.33 116.20,306.33 116.20,304.40 116.20,302.47 119.60,300.53 123.00,300.53 123.00,298.60 126.40,298.60 129.80,298.60 133.20,296.67 133.20,294.73 136.60,294.73 140.00,294.73 143.40,292.80 146.80,292.80 150.20,292.80 153.60,292.80 157.00,292.80 160.40,290.87 160.40,288.93 160.40,287.00 160.40,285.07 167.20,285.07 167.20,281.20 167.20,279.27 167.20,277.33 167.20,275.40 170.60,273.47 170.60,271.53 174.00,271.53 174.00,269.60 174.00,267.67 177.40,265.73 177.40,263.80 177.40,261.87 177.40,259.93 180.80,258.00 180.80,256.07 180.80,254.13 180.80,252.20 180.80,250.27 184.20,248.33 184.20,246.40 187.60,246.40 191.00,246.40 191.00,242.53 194.40,242.53 194.40,240.60 197.80,240.60 197.80,238.67 197.80,234.80 201.20,234.80 201.20,232.87 201.20,230.93 201.20,227.07 201.20,225.13 204.60,225.13 204.60,223.20 204.60,221.27 204.60,217.40 204.60,215.47 204.60,213.53 204.60,211.60 204.60,207.73 204.60,205.80 204.60,203.87 204.60,201.93 204.60,200.00 211.40,200.00 214.80,200.00 214.80,198.07 214.80,196.13 214.80,194.20 214.80,188.40 214.80,186.47 214.80,184.53 214.80,182.60 218.20,180.67 218.20,178.73 218.20,176.80 221.60,176.80 225.00,176.80 228.40,174.87 228.40,172.93 228.40,171.00 231.80,171.00 235.20,169.07 238.60,169.07 242.00,169.07 242.00,167.13 245.40,167.13 248.80,165.20 248.80,163.27 248.80,161.33 252.20,161.33 252.20,157.47 252.20,155.53 252.20,153.60 252.20,151.67 255.60,151.67 259.00,149.73 262.40,149.73 262.40,147.80 262.40,145.87 265.80,143.93 265.80,142.00 269.20,142.00 272.60,142.00 276.00,142.00 279.40,140.07 279.40,138.13 279.40,136.20 282.80,136.20 282.80,132.33 282.80,130.40 286.20,130.40 286.20,128.47 286.20,126.53 286.20,122.67 289.60,122.67 289.60,120.73 289.60,118.80 289.60,116.87 289.60,113.00 289.60,111.07 296.40,109.13 299.80,109.13 303.20,107.20 303.20,105.27 303.20,103.33 303.20,101.40 303.20,99.47 303.20,95.60 306.60,95.60 306.60,93.67 306.60,91.73 306.60,87.87 310.00,87.87 310.00,85.93 310.00,84.00 310.00,82.07 316.80,82.07 316.80,80.13 320.20,80.13 323.60,80.13 330.40,80.13 330.40,78.20 333.80,78.20 337.20,78.20 340.60,78.20 347.40,78.20 350.80,78.20 350.80,76.27 354.20,76.27 361.00,76.27 361.00,74.33 364.40,74.33 367.80,74.33 371.20,74.33 374.60,72.40 378.00,72.40 378.00,70.47 378.00,68.53 381.40,66.60 384.80,66.60 388.20,66.60 388.20,64.67 391.60,64.67 391.60,60.80 391.60,58.87 391.60,56.93 391.60,55.00 395.00,55.00" fill="none" stroke="#2563eb" stroke-width="2"/>
<text x="225.0" y="38" text-anchor="middle" font-size="15">ROC</text>
<text x="225.0" y="375" text-anchor="middle" font-size="12">FPR</text>
<text x="15" y="200.0" text-anchor="middle" font-size="12" transform="rotate(-90 15 200.0)">TPR</text>
<rect x="495" y="55" width="340" height="290" fill="#f9fafb" stroke="#374151"/>
<line x1="495" y1="345.00" x2="835" y2="345.00" stroke="#e5e7eb"/>
<text x="487" y="349.00" text-anchor="end" font-size="10">0.0</text>
<line x1="495" y1="287.00" x2="835" y2="287.00" stroke="#e5e7eb"/>
<text x="487" y="291.00" text-anchor="end" font-size="10">0.2</text>
<line x1="495" y1="229.00" x2="835" y2="229.00" stroke="#e5e7eb"/>
<text x="487" y="233.00" text-anchor="end" font-size="10">0.4</text>
<line x1="495" y1="171.00" x2="835" y2="171.00" stroke="#e5e7eb"/>
<text x="487" y="175.00" text-anchor="end" font-size="10">0.6</text>
<line x1="495" y1="113.00" x2="835" y2="113.00" stroke="#e5e7eb"/>
<text x="487" y="117.00" text-anchor="end" font-size="10">0.8</text>
<line x1="495" y1="55.00" x2="835" y2="55.00" stroke="#e5e7eb"/>
<text x="487" y="59.00" text-anchor="end" font-size="10">1.0</text>
<polyline points="495.00,345.00 495.00,345.00 495.00,345.00 495.00,345.00 499.53,262.14 501.80,236.25 504.07,216.11 506.33,200.00 508.60,186.82 513.13,166.54 515.40,158.57 517.67,151.67 517.67,163.75 517.67,192.37 519.93,185.50 522.20,179.29 522.20,186.82 524.47,181.09 529.00,171.00 529.00,177.69 531.27,173.15 531.27,179.29 531.27,190.33 533.53,185.97 535.80,181.88 538.07,178.03 540.33,174.41 540.33,188.24 540.33,192.37 542.60,188.85 544.87,185.50 547.13,186.19 547.13,189.88 549.40,186.82 549.40,190.33 549.40,193.70 551.67,193.96 553.93,191.12 553.93,194.20 553.93,197.16 556.20,197.26 556.20,200.00 556.20,202.64 556.20,205.18 556.20,207.63 558.47,207.37 560.73,204.83 563.00,202.38 565.27,200.00 565.27,204.53 569.80,200.00 572.07,197.84 574.33,195.74 576.60,193.70 578.87,193.87 581.13,191.94 581.13,194.04 583.40,192.16 585.67,190.33 587.93,190.58 590.20,188.85 592.47,187.15 594.73,185.50 597.00,185.85 599.27,184.28 601.53,182.74 603.80,181.24 606.07,179.77 608.33,180.23 610.60,178.82 610.60,180.67 610.60,182.47 615.13,179.73 615.13,181.49 617.40,180.16 617.40,181.88 619.67,180.57 624.20,178.03 624.20,179.70 626.47,178.47 628.73,177.25 633.27,174.90 635.53,173.76 635.53,175.38 637.80,174.25 640.07,173.15 644.60,171.00 646.87,169.95 649.13,168.93 651.40,167.92 655.93,165.96 658.20,165.00 660.47,164.06 662.73,163.14 665.00,162.23 665.00,165.25 665.00,166.72 667.27,165.81 669.53,164.92 671.80,164.04 678.60,161.48 680.87,160.66 683.13,159.85 685.40,159.05 687.67,159.66 689.93,158.88 692.20,158.11 692.20,159.49 692.20,160.84 694.47,161.40 696.73,160.64 699.00,159.89 699.00,161.20 701.27,161.74 701.27,163.00 701.27,164.25 703.53,163.50 703.53,164.73 705.80,165.20 708.07,164.47 710.33,163.75 710.33,164.93 714.87,163.52 717.13,162.82 719.40,162.13 721.67,161.46 721.67,162.61 723.93,163.07 723.93,164.20 726.20,163.53 728.47,162.87 730.73,163.31 733.00,162.66 733.00,163.75 733.00,164.82 733.00,165.88 735.27,166.28 737.53,165.64 739.80,165.00 739.80,166.03 744.33,164.77 746.60,164.16 746.60,165.17 748.87,164.56 751.13,163.95 755.67,162.76 755.67,163.75 757.93,163.16 760.20,162.58 762.47,162.01 767.00,160.87 769.27,160.32 771.53,161.68 771.53,162.63 773.80,163.01 776.07,162.46 778.33,161.92 780.60,161.38 782.87,160.85 787.40,159.80 787.40,160.71 789.67,160.20 791.93,159.68 796.47,158.67 796.47,159.57 798.73,159.07 801.00,158.57 803.27,158.08 803.27,159.84 805.53,159.35 805.53,160.21 805.53,161.06 805.53,162.75 807.80,162.26 807.80,163.09 807.80,163.91 807.80,164.73 807.80,166.34 807.80,167.13 810.07,166.64 810.07,167.42 810.07,168.97 812.33,168.48 812.33,169.24 812.33,170.00 812.33,170.75 814.60,171.00 814.60,171.74 816.87,171.24 819.13,170.76 821.40,171.00 821.40,171.72 821.40,172.44 823.67,171.95 823.67,172.66 828.20,171.71 830.47,171.23 832.73,170.77 835.00,170.30 835.00,171.00" fill="none" stroke="#2563eb" stroke-width="2"/>
<text x="665.0" y="38" text-anchor="middle" font-size="15">Precision–recall</text>
<text x="665.0" y="375" text-anchor="middle" font-size="12">Recall</text>
<text x="455" y="200.0" text-anchor="middle" font-size="12" transform="rotate(-90 455 200.0)">Precision</text>
<text x="450" y="410" text-anchor="middle" font-size="11">Representative frozen seed: 101; curves are not pooled across datasets.</text>
</g>
</svg>
